PathFileType	4	(X/Y/Z)	./resultDataOpenSim/trcMotMarkerGrf/sub09/qtm-13-07.trc
DataRate	CameraRate	NumFrames	NumMarkers	Units	OrigDataRate	OrigDataStartFrame	OrigNumFrames
250.000000	250.000000	10	24	m	250.000000	242	483
Frame#	Time	L.Toe.Tip			R.Toe.Tip			L.Ankle.Lat			R.Ankle.Lat			L.Ankle.Med			R.Ankle.Med			L.Heel			R.Heel			L.Knee.Lat			R.Knee.Lat			L.Knee.Med			R.Knee.Med			L.Thigh.Upper			R.Thigh.Upper			L.ASIS			R.ASIS			V.Sacral			L.Acromium			R.Acromium			C7			L.Elbow			R.Elbow			L.Wrist.Lat			R.Wrist.Lat
		X1	Y1	Z1	X2	Y2	Z2	X3	Y3	Z3	X4	Y4	Z4	X5	Y5	Z5	X6	Y6	Z6	X7	Y7	Z7	X8	Y8	Z8	X9	Y9	Z9	X10	Y10	Z10	X11	Y11	Z11	X12	Y12	Z12	X13	Y13	Z13	X14	Y14	Z14	X15	Y15	Z15	X16	Y16	Z16	X17	Y17	Z17	X18	Y18	Z18	X19	Y19	Z19	X20	Y20	Z20	X21	Y21	Z21	X22	Y22	Z22	X23	Y23	Z23	X24	Y24	Z24

242	0.964	0.16936566	-0.010508875	-0.011050474	0.44458082	0.10319487	0.11167172	0.023612288	0.036394981	-0.051456509	0.30059122	0.12635611	0.12760603	0.047297657	0.056199092	0.043426009	0.32370073	0.15591997	0.034366862	-0.049962762	0.010976927	-0.0056191669	0.23509713	0.102754	0.073058102	0.14261231	0.43457702	-0.11308995	0.43893925	0.55449156	0.15796137	0.14253483	0.43798728	0.013033087	0.43686092	0.53887144	0.0333546	0.17463796	0.85838389	-0.17166574	0.18579416	0.87225917	0.19950826	0.26708508	0.94023702	-0.11263616	0.26258301	0.95374944	0.12601939	0.097442816	1.0082697	-0.0013888198	0.30919829	1.3890149	-0.14973415	0.2484388	1.4073036	0.17417501	0.21316154	1.45329	-0.00063103477	0.18629259	1.0348322	-0.22075307	0.072377126	1.0880499	0.23303537	0.39505655	0.8622401	-0.20459674	0.15689615	0.83844437	0.30019734
243	0.968	0.16933878	-0.010497461	-0.011084201	0.4652849	0.10346009	0.11063536	0.023683329	0.037089124	-0.051190951	0.32033714	0.12277928	0.12702493	0.047685615	0.056786122	0.043555648	0.3427466	0.15316878	0.033824842	-0.049791898	0.011935041	-0.0051918843	0.25580585	0.097532125	0.072492697	0.14296984	0.43524242	-0.11305832	0.44689543	0.55572831	0.15769945	0.14294997	0.43843952	0.013345424	0.4446381	0.53958258	0.033087137	0.17935902	0.85855335	-0.17157602	0.1929251	0.87250377	0.19970126	0.27279532	0.94007185	-0.11313474	0.26927061	0.95366746	0.1256376	0.10449088	1.0077567	-0.0011846639	0.31564084	1.3889072	-0.14981816	0.25552722	1.4071695	0.1741954	0.21983571	1.4531947	-0.00057460273	0.19299795	1.0344068	-0.22079095	0.078729721	1.0886988	0.23317864	0.4034562	0.86376828	-0.20392787	0.16096917	0.83860665	0.30114652
244	0.972	0.16934522	-0.010462625	-0.011170747	0.48588235	0.10379123	0.10960633	0.023738662	0.037796529	-0.050855051	0.33982452	0.119432	0.12650177	0.048117445	0.05739267	0.043760874	0.36184736	0.15053752	0.033239831	-0.049623481	0.012912196	-0.0046877329	0.2765651	0.092547151	0.07186564	0.14329248	0.43592859	-0.11301695	0.45469424	0.55671816	0.15752383	0.14349342	0.43901603	0.013496998	0.45229713	0.5401389	0.032922595	0.18402515	0.85867902	-0.17136468	0.19994247	0.8726341	0.19984365	0.27847756	0.93983014	-0.11365094	0.27596642	0.9534991	0.12526093	0.11050795	1.0074568	-0.00077732244	0.3220686	1.3887515	-0.1499069	0.26261223	1.4069694	0.17421586	0.22650417	1.4530282	-0.00050361345	0.19970578	1.033928	-0.2207946	0.085110539	1.0892693	0.23334794	0.41180944	0.86522561	-0.2032752	0.16511477	0.83871841	0.30206998
245	0.976	0.16940233	-0.010417652	-0.011304632	0.50639297	0.10419376	0.10859044	0.023777108	0.038516144	-0.05045211	0.35938556	0.11626448	0.12596788	0.048589478	0.058009344	0.044042276	0.38099756	0.14803474	0.032595223	-0.049446998	0.013910477	-0.0040908342	0.29735579	0.087807297	0.071192839	0.14357504	0.43663099	-0.11296858	0.46228209	0.55740504	0.15741008	0.14445378	0.43974548	0.013364408	0.45980077	0.54052124	0.032869779	0.18878774	0.85877715	-0.17120465	0.20685526	0.87264195	0.19994316	0.2841771	0.9395203	-0.11415281	0.28267667	0.95324756	0.12489231	0.1158907	1.0072975	-0.00026293221	0.32848094	1.3885478	-0.14999297	0.26970098	1.4067007	0.17423394	0.23318392	1.4527955	-0.00038769494	0.20642357	1.0333931	-0.22076562	0.091533667	1.0897578	0.23354725	0.42011882	0.86661504	-0.20263653	0.16935203	0.83878436	0.30297653
246	0.98	0.16947322	-0.010377281	-0.011427508	0.52684043	0.10466631	0.10759097	0.023797238	0.039257633	-0.049996967	0.37917142	0.11325633	0.12535318	0.049089048	0.058633718	0.04437382	0.4001708	0.14568076	0.031899194	-0.049252738	0.014932005	-0.0033956182	0.31817044	0.08331134	0.07047185	0.14383613	0.4373433	-0.1129176	0.46967637	0.55781457	0.15734407	0.14588664	0.44051105	0.012997232	0.46714842	0.54071406	0.032918444	0.19376373	0.85885687	-0.17121732	0.2137247	0.87253362	0.20002617	0.28990536	0.93914809	-0.11463267	0.28941351	0.95291418	0.12453434	0.12105311	1.0071787	0.00028081981	0.33487877	1.3882935	-0.15007306	0.27681085	1.4063617	0.17425364	0.23988019	1.4525072	-0.00022636071	0.21315438	1.032804	-0.22072033	0.097989661	1.0901643	0.23376538	0.42838771	0.86793783	-0.20200915	0.17369046	0.83880241	0.30387086
247	0.984	0.16951694	-0.010342623	-0.011489097	0.54722624	0.10521886	0.10662408	0.023797542	0.040032789	-0.049488984	0.3991207	0.11040981	0.12461818	0.049611609	0.059277632	0.044735869	0.4193352	0.14349473	0.031173859	-0.049039376	0.015980358	-0.0026115065	0.33900814	0.079054976	0.069679915	0.14410262	0.43806007	-0.11286216	0.4769613	0.55801495	0.15734842	0.1475414	0.44118835	0.012578864	0.47436923	0.54071268	0.033045131	0.19896014	0.85891218	-0.17140678	0.22058747	0.87231368	0.20010551	0.2956537	0.93871441	-0.11510273	0.29618115	0.95249328	0.12418752	0.12620867	1.007053	0.00083750471	0.34126792	1.387986	-0.15014632	0.28393999	1.4059539	0.17428052	0.24658188	1.4521668	-5.0722368e-05	0.21989271	1.0321671	-0.22067068	0.10441576	1.0905016	0.23397163	0.43661897	0.86919543	-0.20139043	0.17812381	0.83876307	0.30474555
248	0.988	0.16953264	-0.01031275	-0.011496004	0.56750961	0.10588196	0.10572263	0.023779249	0.040839843	-0.048902657	0.41911299	0.10772947	0.12375002	0.050164454	0.059946583	0.04513443	0.43846941	0.14148843	0.030439581	-0.048811132	0.017059269	-0.0017496854	0.35986822	0.075038796	0.068786672	0.1444017	0.43877726	-0.11280374	0.48422437	0.55806154	0.15746404	0.14909362	0.44175728	0.012301519	0.4815199	0.54051808	0.033214678	0.2042333	0.85891956	-0.17163478	0.22744764	0.87198304	0.20018438	0.3014377	0.93822429	-0.11556975	0.30297329	0.95197642	0.12384905	0.13158199	1.0069165	0.0014144221	0.34765711	1.3876251	-0.15021184	0.29106942	1.4054811	0.1743145	0.25327157	1.4517574	0.00011222964	0.22663266	1.0314846	-0.22061002	0.11070899	1.0907923	0.23411833	0.44481102	0.87038746	-0.20077874	0.18263416	0.83865877	0.30558719
249	0.992	0.16954211	-0.010294769	-0.011488443	0.58764117	0.10667986	0.10490802	0.02375119	0.0416657	-0.048227314	0.43905491	0.10522385	0.12277401	0.050760958	0.060633422	0.045576815	0.45756359	0.13966861	0.029713306	-0.048569164	0.018169656	-0.00080787215	0.38073527	0.071275181	0.067787603	0.14476344	0.43949524	-0.11275234	0.49146044	0.55795926	0.15769657	0.15042972	0.44226935	0.012239053	0.48868017	0.5401338	0.033378909	0.20940112	0.85885225	-0.17173894	0.23430162	0.87154832	0.20026668	0.30729481	0.9376881	-0.11602405	0.30978353	0.95135955	0.12351606	0.13762204	1.0067793	0.001971863	0.35404736	1.3872125	-0.15027305	0.29819035	1.4049448	0.17435186	0.25994163	1.4512604	0.00027418586	0.23337313	1.0307519	-0.22052489	0.11683572	1.0910438	0.23418058	0.45296177	0.87151199	-0.20017204	0.18720784	0.83849062	0.30639312
250	0.996	0.16955728	-0.010291998	-0.011491523	0.60761065	0.10759303	0.10415384	0.023727182	0.042502126	-0.047489013	0.45889821	0.10290887	0.12176226	0.051415911	0.061335339	0.046042274	0.47661789	0.13804005	0.028998961	-0.048309569	0.019309481	0.00022749607	0.40157943	0.067784896	0.066711862	0.14521968	0.44021643	-0.11271862	0.49853686	0.5576566	0.15799747	0.15168747	0.44276337	0.012298525	0.49589868	0.53956647	0.033507461	0.2144101	0.85869575	-0.17169095	0.24113903	0.87101102	0.20034974	0.31325644	0.9371143	-0.11644455	0.31661197	0.9506433	0.12318589	0.14479254	1.0066414	0.0023585244	0.36043039	1.3867507	-0.15033645	0.30530495	1.4043417	0.17439032	0.26659123	1.4506827	0.00048046411	0.24011114	1.0299676	-0.22041331	0.1229412	1.0912282	0.2342166	0.46107422	0.87256818	-0.19956759	0.19185152	0.83826232	0.30717513
251	1	0.16957631	-0.010298223	-0.01150447	0.62743705	0.10857789	0.10339193	0.023713527	0.043355238	-0.04671198	0.47863726	0.10079495	0.12078025	0.052131906	0.062056596	0.046512858	0.49563745	0.13660428	0.028271711	-0.048028677	0.020477347	0.0013642135	0.42237692	0.064589235	0.065609724	0.14578012	0.44093645	-0.11270373	0.50533189	0.55709983	0.1583046	0.15300045	0.443267	0.012328042	0.50312795	0.53882966	0.033619448	0.21934164	0.85844975	-0.17158135	0.24795021	0.87036057	0.20042977	0.31933971	0.93650545	-0.11680391	0.32346417	0.9498315	0.12285734	0.15297059	1.0064615	0.0023955149	0.36679808	1.3862387	-0.1504017	0.31241297	1.4036683	0.17442999	0.27321926	1.450045	0.00076329239	0.24684233	1.0291354	-0.22028324	0.12923534	1.0913057	0.23433525	0.46915237	0.87355562	-0.19896529	0.19658289	0.83797126	0.30794549
